<mxfile host="app.diagrams.net" modified="2024-05-11T15:03:21.736Z" agent="Mozilla/5.0 (Macintosh; Intel Mac OS X 10_15_7) AppleWebKit/537.36 (KHTML, like Gecko) Chrome/124.0.0.0 Safari/537.36" etag="E8Tllc4LOFPtbtOduVfR" version="24.4.0" type="device">
  <diagram name="Page-1" id="X13MGHCXbghwjK21ayVd">
    <mxGraphModel dx="2110" dy="1507" grid="0" gridSize="10" guides="1" tooltips="1" connect="1" arrows="1" fold="1" page="0" pageScale="1" pageWidth="827" pageHeight="1169" math="0" shadow="0">
      <root>
        <mxCell id="0" />
        <mxCell id="1" parent="0" />
        <mxCell id="Ced7RIzLAMDpGy4NAy0U-57" value="" style="rounded=0;whiteSpace=wrap;html=1;strokeWidth=2;fillColor=default;strokeColor=none;" parent="1" vertex="1">
          <mxGeometry x="-25.75" y="-66" width="1533.5" height="497" as="geometry" />
        </mxCell>
        <mxCell id="Ced7RIzLAMDpGy4NAy0U-55" value="" style="rounded=0;whiteSpace=wrap;html=1;" parent="1" vertex="1">
          <mxGeometry x="232.5" y="25" width="997" height="315" as="geometry" />
        </mxCell>
        <mxCell id="Ced7RIzLAMDpGy4NAy0U-2" value="" style="shape=image;html=1;verticalAlign=top;verticalLabelPosition=bottom;labelBackgroundColor=#ffffff;imageAspect=0;aspect=fixed;image=https://cdn2.iconfinder.com/data/icons/whcompare-isometric-web-hosting-servers/50/server-128.png" parent="1" vertex="1">
          <mxGeometry x="-11" y="119" width="128" height="128" as="geometry" />
        </mxCell>
        <mxCell id="Ced7RIzLAMDpGy4NAy0U-3" value="" style="endArrow=classic;html=1;rounded=0;strokeWidth=7;" parent="1" edge="1">
          <mxGeometry width="50" height="50" relative="1" as="geometry">
            <mxPoint x="111" y="170" as="sourcePoint" />
            <mxPoint x="219" y="170" as="targetPoint" />
          </mxGeometry>
        </mxCell>
        <mxCell id="Ced7RIzLAMDpGy4NAy0U-28" value="" style="shape=image;verticalLabelPosition=bottom;labelBackgroundColor=default;verticalAlign=top;aspect=fixed;imageAspect=0;image=data:image/svg+xml,PHN2ZyB4bWxucz0iaHR0cDovL3d3dy53My5vcmcvMjAwMC9zdmciIHZpZXdCb3g9IjY4NC40NCAyNTEuNjMgNTYgNTYiIGhlaWdodD0iNTYiIHdpZHRoPSI1NiI+JiN4YTsgICAgPHBhdGggZmlsbD0iI2YwYmExNyIgZD0ibTcxMi40MSAyNTEuNjMgMTcuMTU5IDE3LjExOC02LjM0MiA2LjM0Mi0xMC44MTctMTAuODI3LTEwLjgxNyAxMC44ODMtNi4zNDEtNi4zNDEgMTcuMTU4LTE3LjE3NXptLTIxLjYzNiAyMS42NTUgNi4yODMgNi4zNDUtNi4yNzkgNi4yODktNi4zNDItNi4yODkgNi4zMzgtNi4zNDV6bTIxLjYzNiAzZS0zIDYuMzM4IDYuMjg2LTYuMzQgNi4zNDUtNi4zMzktNi4yODkgNi4zMzktNi4zNDJoMmUtM3ptMjEuNjM1LTNlLTMgNi4zOTEgNi4zNDUtNi4zMzUgNi4zNDUtNi4zNC02LjM0NSA2LjI4NC02LjM0NXptLTEwLjgyIDEwLjgyOSA2LjM0MiA2LjM0MS0xNy4xNTkgMTcuMTc1LTE3LjE1OC0xNy4xNzEgNi4zNDEtNi4zNDUgMTAuODE3IDEwLjg4MyAxMC44MTctMTAuODgzeiIvPiYjeGE7PC9zdmc+;" parent="1" vertex="1">
          <mxGeometry x="1361" y="127.5" width="111" height="111" as="geometry" />
        </mxCell>
        <mxCell id="Ced7RIzLAMDpGy4NAy0U-29" value="&lt;font style=&quot;font-size: 20px;&quot;&gt;Request passing key identifier&lt;/font&gt;" style="text;html=1;strokeColor=none;fillColor=none;align=center;verticalAlign=middle;whiteSpace=wrap;rounded=0;" parent="1" vertex="1">
          <mxGeometry x="90" y="70" width="138" height="76" as="geometry" />
        </mxCell>
        <mxCell id="Ced7RIzLAMDpGy4NAy0U-39" value="&lt;font style=&quot;font-size: 20px;&quot;&gt;Find the key using the key identifier passed.&lt;/font&gt;" style="rounded=0;whiteSpace=wrap;html=1;strokeWidth=2;" parent="1" vertex="1">
          <mxGeometry x="454" y="46" width="150" height="130" as="geometry" />
        </mxCell>
        <mxCell id="Ced7RIzLAMDpGy4NAy0U-40" value="&lt;font style=&quot;font-size: 20px;&quot;&gt;Receive the request.&lt;/font&gt;" style="rounded=0;whiteSpace=wrap;html=1;strokeWidth=2;" parent="1" vertex="1">
          <mxGeometry x="249" y="46" width="150" height="130" as="geometry" />
        </mxCell>
        <mxCell id="Ced7RIzLAMDpGy4NAy0U-41" value="&lt;font style=&quot;font-size: 20px;&quot;&gt;Return normalized&lt;br style=&quot;border-color: var(--border-color);&quot;&gt;response.&lt;/font&gt;" style="rounded=0;whiteSpace=wrap;html=1;strokeWidth=2;" parent="1" vertex="1">
          <mxGeometry x="249" y="193.5" width="150" height="130" as="geometry" />
        </mxCell>
        <mxCell id="Ced7RIzLAMDpGy4NAy0U-42" value="&lt;font style=&quot;font-size: 20px;&quot;&gt;Normalize the response&lt;br style=&quot;border-color: var(--border-color);&quot;&gt;received.&lt;/font&gt;" style="rounded=0;whiteSpace=wrap;html=1;strokeWidth=2;" parent="1" vertex="1">
          <mxGeometry x="656" y="193.5" width="150" height="130" as="geometry" />
        </mxCell>
        <mxCell id="Ced7RIzLAMDpGy4NAy0U-44" value="&lt;font style=&quot;font-size: 20px;&quot;&gt;Define which exchange to use according to the key identifier passed.&lt;/font&gt;" style="rounded=0;whiteSpace=wrap;html=1;strokeWidth=2;" parent="1" vertex="1">
          <mxGeometry x="657" y="46" width="150" height="130" as="geometry" />
        </mxCell>
        <mxCell id="Ced7RIzLAMDpGy4NAy0U-45" value="&lt;font style=&quot;font-size: 20px;&quot;&gt;Construct the request using passed parameters.&lt;/font&gt;" style="rounded=0;whiteSpace=wrap;html=1;strokeWidth=2;" parent="1" vertex="1">
          <mxGeometry x="861" y="46" width="150" height="130" as="geometry" />
        </mxCell>
        <mxCell id="Ced7RIzLAMDpGy4NAy0U-46" value="&lt;font style=&quot;font-size: 20px;&quot;&gt;Send the request to the cryptocurrency exchange.&lt;/font&gt;" style="rounded=0;whiteSpace=wrap;html=1;strokeWidth=2;" parent="1" vertex="1">
          <mxGeometry x="1066" y="46" width="150" height="130" as="geometry" />
        </mxCell>
        <mxCell id="Ced7RIzLAMDpGy4NAy0U-47" value="&lt;font style=&quot;font-size: 20px;&quot;&gt;Receive response from crypto exchange.&lt;/font&gt;" style="rounded=0;whiteSpace=wrap;html=1;strokeWidth=2;" parent="1" vertex="1">
          <mxGeometry x="1066" y="193.5" width="150" height="130" as="geometry" />
        </mxCell>
        <mxCell id="Ced7RIzLAMDpGy4NAy0U-48" value="" style="endArrow=classic;html=1;rounded=0;strokeWidth=7;exitX=0.239;exitY=0.27;exitDx=0;exitDy=0;exitPerimeter=0;" parent="1" edge="1">
          <mxGeometry width="50" height="50" relative="1" as="geometry">
            <mxPoint x="607.5" y="110.63" as="sourcePoint" />
            <mxPoint x="652.5" y="110.63" as="targetPoint" />
          </mxGeometry>
        </mxCell>
        <mxCell id="Ced7RIzLAMDpGy4NAy0U-49" value="" style="endArrow=classic;html=1;rounded=0;strokeWidth=7;exitX=0.239;exitY=0.27;exitDx=0;exitDy=0;exitPerimeter=0;" parent="1" edge="1">
          <mxGeometry width="50" height="50" relative="1" as="geometry">
            <mxPoint x="811.5" y="110.63" as="sourcePoint" />
            <mxPoint x="856.5" y="110.63" as="targetPoint" />
          </mxGeometry>
        </mxCell>
        <mxCell id="Ced7RIzLAMDpGy4NAy0U-50" value="" style="endArrow=classic;html=1;rounded=0;strokeWidth=7;exitX=0.239;exitY=0.27;exitDx=0;exitDy=0;exitPerimeter=0;" parent="1" edge="1">
          <mxGeometry width="50" height="50" relative="1" as="geometry">
            <mxPoint x="1014.5" y="110.63" as="sourcePoint" />
            <mxPoint x="1059.5" y="110.63" as="targetPoint" />
          </mxGeometry>
        </mxCell>
        <mxCell id="Ced7RIzLAMDpGy4NAy0U-58" value="" style="endArrow=classic;html=1;rounded=0;strokeWidth=7;" parent="1" edge="1">
          <mxGeometry width="50" height="50" relative="1" as="geometry">
            <mxPoint x="215" y="193" as="sourcePoint" />
            <mxPoint x="107" y="193" as="targetPoint" />
          </mxGeometry>
        </mxCell>
        <mxCell id="Ced7RIzLAMDpGy4NAy0U-59" value="" style="endArrow=classic;html=1;rounded=0;strokeWidth=7;" parent="1" edge="1">
          <mxGeometry width="50" height="50" relative="1" as="geometry">
            <mxPoint x="1244" y="167.83" as="sourcePoint" />
            <mxPoint x="1352" y="167.83" as="targetPoint" />
          </mxGeometry>
        </mxCell>
        <mxCell id="Ced7RIzLAMDpGy4NAy0U-60" value="" style="endArrow=classic;html=1;rounded=0;strokeWidth=7;" parent="1" edge="1">
          <mxGeometry width="50" height="50" relative="1" as="geometry">
            <mxPoint x="1348" y="190.83" as="sourcePoint" />
            <mxPoint x="1240" y="190.83" as="targetPoint" />
          </mxGeometry>
        </mxCell>
        <mxCell id="Ced7RIzLAMDpGy4NAy0U-61" value="" style="endArrow=classic;html=1;rounded=0;strokeWidth=7;exitX=0.239;exitY=0.27;exitDx=0;exitDy=0;exitPerimeter=0;" parent="1" edge="1">
          <mxGeometry width="50" height="50" relative="1" as="geometry">
            <mxPoint x="404.5" y="110.63" as="sourcePoint" />
            <mxPoint x="449.5" y="110.63" as="targetPoint" />
          </mxGeometry>
        </mxCell>
        <mxCell id="Ced7RIzLAMDpGy4NAy0U-62" value="" style="endArrow=classic;html=1;rounded=0;strokeWidth=7;exitX=0.239;exitY=0.27;exitDx=0;exitDy=0;exitPerimeter=0;" parent="1" edge="1">
          <mxGeometry width="50" height="50" relative="1" as="geometry">
            <mxPoint x="1061" y="258" as="sourcePoint" />
            <mxPoint x="810" y="258" as="targetPoint" />
          </mxGeometry>
        </mxCell>
        <mxCell id="Ced7RIzLAMDpGy4NAy0U-63" value="" style="endArrow=classic;html=1;rounded=0;strokeWidth=7;exitX=0.239;exitY=0.27;exitDx=0;exitDy=0;exitPerimeter=0;" parent="1" edge="1">
          <mxGeometry width="50" height="50" relative="1" as="geometry">
            <mxPoint x="652" y="258" as="sourcePoint" />
            <mxPoint x="401" y="258" as="targetPoint" />
          </mxGeometry>
        </mxCell>
      </root>
    </mxGraphModel>
  </diagram>
</mxfile>
